<?xml version="1.0" standalone="no"?>
<!DOCTYPE svg PUBLIC "-//W3C//DTD SVG 20010904//EN"
 "http://www.w3.org/TR/2001/REC-SVG-20010904/DTD/svg10.dtd">
<svg version="1.0" xmlns="http://www.w3.org/2000/svg"
 width="500.000000pt" height="500.000000pt" viewBox="0 0 500.000000 500.000000"
 preserveAspectRatio="xMidYMid meet">

<g transform="translate(0.000000,500.000000) scale(0.100000,-0.100000)"
fill="#000000" stroke="none">
<path d="M1838 3906 c-365 -211 -712 -412 -773 -447 l-110 -64 0 -185 0 -185
30 0 30 0 3 165 3 165 97 56 c53 31 386 223 740 427 l644 372 151 -88 c84 -48
416 -241 739 -427 l588 -339 2 -166 3 -165 30 0 30 0 3 181 c2 137 -1 184 -10
192 -7 5 -168 100 -358 210 -190 109 -507 292 -705 407 -198 114 -386 222
-417 241 l-56 32 -664 -382z"/>
<path d="M2906 3344 c-38 -7 -107 -32 -155 -55 -70 -34 -102 -59 -171 -128
-121 -123 -184 -250 -197 -398 l-6 -73 140 0 141 0 7 55 c10 80 56 164 125
228 193 179 500 118 613 -121 l32 -67 3 -228 3 -228 142 3 142 3 0 210 c0 229
-9 301 -53 400 -131 301 -443 464 -766 399z"/>
<path d="M1632 2942 c13 -34 194 -382 198 -382 3 0 25 40 49 88 l43 89 -53
106 -53 107 -94 0 c-52 0 -92 -4 -90 -8z"/>
<path d="M1973 2730 l-113 -219 0 -231 0 -230 90 0 90 0 0 220 0 220 115 230
115 230 -92 0 -93 0 -112 -220z"/>
<path d="M2911 2909 c-104 -52 -146 -128 -139 -252 4 -85 38 -149 103 -195 68
-49 71 -48 93 18 19 56 19 59 3 65 -27 8 -61 49 -76 90 -17 51 -4 101 38 143
48 47 99 52 193 18 39 -14 75 -26 80 -26 13 0 47 101 37 110 -4 4 -44 19 -88
34 -109 35 -165 34 -244 -5z"/>
<path d="M1312 2438 c5 -231 6 -247 31 -316 64 -180 174 -307 337 -391 112
-58 197 -75 339 -68 172 8 294 57 417 170 71 65 107 113 153 203 32 63 71 206
71 262 l0 32 -139 0 -138 0 -13 -62 c-25 -129 -105 -235 -219 -291 -61 -30
-74 -32 -166 -32 -93 0 -105 2 -166 32 -116 57 -196 160 -219 282 -5 29 -10
136 -10 237 l0 184 -141 0 -141 0 4 -242z"/>
<path d="M3086 2439 l-18 -50 40 -35 c86 -73 77 -190 -18 -239 -41 -21 -86
-19 -170 10 -41 14 -77 22 -81 18 -3 -5 -13 -30 -22 -56 -12 -36 -13 -49 -4
-52 7 -2 43 -16 81 -30 89 -33 184 -34 241 -4 191 100 206 344 30 463 -21 14
-43 26 -49 26 -7 0 -20 -23 -30 -51z"/>
<path d="M950 1787 l0 -183 123 -70 c67 -39 416 -240 775 -448 l653 -377 472
272 c260 150 608 351 775 448 l302 174 0 184 0 183 -35 0 -35 0 0 -164 0 -164
-372 -215 c-205 -118 -425 -245 -488 -282 -63 -37 -228 -132 -367 -212 l-252
-145 -358 207 c-197 114 -530 306 -740 427 l-383 221 0 164 0 163 -35 0 -35 0
0 -183z"/>
</g>
</svg>
