<svg xmlns="http://www.w3.org/2000/svg" xmlns:xlink="http://www.w3.org/1999/xlink" width="1920" zoomAndPan="magnify" viewBox="0 0 1440 809.999993" height="1080" preserveAspectRatio="xMidYMid meet" version="1.2"><defs><clipPath id="bb16a689c1"><path d="M 486.574219 135.015625 L 953.496094 135.015625 L 953.496094 674.914062 L 486.574219 674.914062 Z M 486.574219 135.015625 "/></clipPath><clipPath id="5ea79e842a"><path d="M 701 275 L 904.679688 275 L 904.679688 431 L 701 431 Z M 701 275 "/></clipPath><clipPath id="45d8339065"><path d="M 540.46875 377 L 744 377 L 744 532.855469 L 540.46875 532.855469 Z M 540.46875 377 "/></clipPath><clipPath id="8bf30e451a"><path d="M 622 336.507812 L 685.953125 336.507812 L 685.953125 473 L 622 473 Z M 622 336.507812 "/></clipPath><clipPath id="55d813a1a1"><path d="M 587.976562 336.507812 L 634 336.507812 L 634 398 L 587.976562 398 Z M 587.976562 336.507812 "/></clipPath><clipPath id="b286b4d4da"><path d="M 766 406 L 838 406 L 838 483 L 766 483 Z M 766 406 "/></clipPath><clipPath id="dd9a48c75c"><path d="M 775.21875 326.890625 L 870.785156 360.664062 L 823.277344 495.09375 L 727.710938 461.320312 Z M 775.21875 326.890625 "/></clipPath><clipPath id="e3b65a4216"><path d="M 775.21875 326.890625 L 870.785156 360.664062 L 823.277344 495.09375 L 727.710938 461.320312 Z M 775.21875 326.890625 "/></clipPath><clipPath id="b7ba3b11ee"><path d="M 775.21875 326.890625 L 870.785156 360.664062 L 823.277344 495.09375 L 727.710938 461.320312 Z M 775.21875 326.890625 "/></clipPath><clipPath id="9cff21962f"><path d="M 764 405 L 840 405 L 840 484 L 764 484 Z M 764 405 "/></clipPath><clipPath id="050be2735f"><path d="M 775.21875 326.890625 L 870.785156 360.664062 L 823.277344 495.09375 L 727.710938 461.320312 Z M 775.21875 326.890625 "/></clipPath><clipPath id="20f1a97c6a"><path d="M 775.21875 326.890625 L 870.785156 360.664062 L 823.277344 495.09375 L 727.710938 461.320312 Z M 775.21875 326.890625 "/></clipPath><clipPath id="4595ef0e67"><path d="M 775.21875 326.890625 L 870.785156 360.664062 L 823.277344 495.09375 L 727.710938 461.320312 Z M 775.21875 326.890625 "/></clipPath><clipPath id="7e21505cd6"><path d="M 760 339 L 833 339 L 833 416 L 760 416 Z M 760 339 "/></clipPath><clipPath id="cbcd25e2cd"><path d="M 775.21875 326.890625 L 870.785156 360.664062 L 823.277344 495.09375 L 727.710938 461.320312 Z M 775.21875 326.890625 "/></clipPath><clipPath id="e5a2974bf1"><path d="M 775.21875 326.890625 L 870.785156 360.664062 L 823.277344 495.09375 L 727.710938 461.320312 Z M 775.21875 326.890625 "/></clipPath><clipPath id="6f3654c1f9"><path d="M 775.21875 326.890625 L 870.785156 360.664062 L 823.277344 495.09375 L 727.710938 461.320312 Z M 775.21875 326.890625 "/></clipPath><clipPath id="8d0d17e54c"><path d="M 759 338 L 834 338 L 834 417 L 759 417 Z M 759 338 "/></clipPath><clipPath id="78005c66d8"><path d="M 775.21875 326.890625 L 870.785156 360.664062 L 823.277344 495.09375 L 727.710938 461.320312 Z M 775.21875 326.890625 "/></clipPath><clipPath id="a91eb59bbc"><path d="M 775.21875 326.890625 L 870.785156 360.664062 L 823.277344 495.09375 L 727.710938 461.320312 Z M 775.21875 326.890625 "/></clipPath><clipPath id="d8ef60adf8"><path d="M 775.21875 326.890625 L 870.785156 360.664062 L 823.277344 495.09375 L 727.710938 461.320312 Z M 775.21875 326.890625 "/></clipPath></defs><g id="56d3e91d12"><g clip-rule="nonzero" clip-path="url(#bb16a689c1)"><path style=" stroke:none;fill-rule:nonzero;fill:#000000;fill-opacity:1;" d="M 953.496094 325.898438 L 942.957031 325.898438 L 942.957031 276.246094 L 720.035156 147.421875 L 497.113281 276.246094 L 497.113281 325.898438 L 486.574219 325.898438 L 486.574219 270.132812 L 720.035156 135.300781 L 953.496094 270.132812 Z M 953.496094 539.796875 L 953.496094 484.03125 L 942.957031 484.03125 L 942.957031 533.683594 L 720.035156 662.402344 L 497.113281 533.683594 L 497.113281 484.03125 L 486.574219 484.03125 L 486.574219 539.796875 L 720.035156 674.628906 Z M 953.496094 539.796875 "/></g><g clip-rule="nonzero" clip-path="url(#5ea79e842a)"><path style=" stroke:none;fill-rule:nonzero;fill:#737373;fill-opacity:1;" d="M 904.679688 376.785156 L 904.679688 430.335938 L 861.828125 430.335938 L 861.828125 376.785156 C 861.828125 344.292969 835.394531 317.859375 802.914062 317.859375 C 770.433594 317.859375 744 344.292969 744 376.785156 L 701.148438 376.785156 C 701.148438 320.675781 746.804688 275.019531 802.914062 275.019531 C 859.027344 275.019531 904.679688 320.675781 904.679688 376.785156 "/></g><g clip-rule="nonzero" clip-path="url(#45d8339065)"><path style=" stroke:none;fill-rule:nonzero;fill:#737373;fill-opacity:1;" d="M 744 430.335938 C 744 486.449219 698.347656 532.101562 642.234375 532.101562 C 586.121094 532.101562 540.46875 486.449219 540.46875 430.335938 L 540.46875 377.269531 L 583.320312 377.269531 L 583.320312 430.335938 C 583.320312 462.832031 609.753906 489.25 642.234375 489.25 C 674.714844 489.25 701.148438 462.832031 701.148438 430.335938 L 744 430.335938 "/></g><g clip-rule="nonzero" clip-path="url(#8bf30e451a)"><path style=" stroke:none;fill-rule:nonzero;fill:#000000;fill-opacity:1;" d="M 623.125 404.140625 L 622.695312 472.972656 L 651.472656 472.972656 L 651.234375 404.636719 L 685.953125 336.535156 L 657.179688 336.535156 L 623.125 404.140625 "/></g><g clip-rule="nonzero" clip-path="url(#55d813a1a1)"><path style=" stroke:none;fill-rule:nonzero;fill:#000000;fill-opacity:1;" d="M 618.960938 397.316406 L 587.976562 336.535156 L 616.75 336.535156 L 633.496094 369.414062 L 618.960938 397.316406 "/></g><g clip-rule="nonzero" clip-path="url(#b286b4d4da)"><g clip-rule="nonzero" clip-path="url(#dd9a48c75c)"><g clip-rule="nonzero" clip-path="url(#e3b65a4216)"><g clip-rule="nonzero" clip-path="url(#b7ba3b11ee)"><path style=" stroke:none;fill-rule:nonzero;fill:#100f0d;fill-opacity:1;" d="M 785.59375 480.679688 L 766.085938 473.785156 L 771.59375 458.195312 L 791.101562 465.089844 C 802.933594 469.269531 815.953125 463.0625 820.132812 451.242188 C 824.308594 439.425781 818.078125 426.410156 806.246094 422.230469 L 811.753906 406.644531 C 832.191406 413.867188 842.949219 436.347656 835.738281 456.757812 C 828.523438 477.167969 806.027344 487.902344 785.59375 480.679688 "/></g></g></g></g><g clip-rule="nonzero" clip-path="url(#9cff21962f)"><g clip-rule="nonzero" clip-path="url(#050be2735f)"><g clip-rule="nonzero" clip-path="url(#20f1a97c6a)"><g clip-rule="nonzero" clip-path="url(#4595ef0e67)"><path style=" stroke:none;fill-rule:nonzero;fill:#100f0d;fill-opacity:1;" d="M 767.402344 473.152344 L 785.9375 479.703125 C 805.839844 486.734375 827.742188 476.289062 834.765625 456.414062 C 841.671875 436.871094 831.644531 415.371094 812.378906 407.976562 L 807.554688 421.625 C 819.296875 426.34375 825.359375 439.5625 821.109375 451.585938 C 816.742188 463.941406 803.128906 470.4375 790.757812 466.066406 L 772.222656 459.515625 Z M 785.25 481.648438 L 764.765625 474.410156 L 770.960938 456.878906 L 791.445312 464.117188 C 802.738281 468.109375 815.171875 462.175781 819.160156 450.898438 C 823.144531 439.621094 817.195312 427.199219 805.902344 423.207031 L 804.929688 422.863281 L 811.128906 405.324219 L 812.101562 405.667969 C 833.074219 413.082031 844.117188 436.15625 836.714844 457.101562 C 829.3125 478.054688 806.222656 489.0625 785.25 481.648438 "/></g></g></g></g><g clip-rule="nonzero" clip-path="url(#7e21505cd6)"><g clip-rule="nonzero" clip-path="url(#cbcd25e2cd)"><g clip-rule="nonzero" clip-path="url(#e5a2974bf1)"><g clip-rule="nonzero" clip-path="url(#6f3654c1f9)"><path style=" stroke:none;fill-rule:nonzero;fill:#100f0d;fill-opacity:1;" d="M 786.742188 415.335938 C 766.304688 408.113281 755.546875 385.636719 762.761719 365.222656 C 769.972656 344.8125 792.46875 334.082031 812.90625 341.304688 L 832.234375 348.132812 L 826.722656 363.722656 L 807.394531 356.894531 C 795.566406 352.710938 782.542969 358.917969 778.367188 370.738281 C 774.191406 382.554688 780.417969 395.570312 792.25 399.75 L 786.742188 415.335938 "/></g></g></g></g><g clip-rule="nonzero" clip-path="url(#8d0d17e54c)"><g clip-rule="nonzero" clip-path="url(#78005c66d8)"><g clip-rule="nonzero" clip-path="url(#a91eb59bbc)"><g clip-rule="nonzero" clip-path="url(#d8ef60adf8)"><path style=" stroke:none;fill-rule:nonzero;fill:#100f0d;fill-opacity:1;" d="M 812.558594 342.28125 C 792.660156 335.246094 770.757812 345.695312 763.734375 365.566406 C 756.824219 385.113281 766.851562 406.613281 786.117188 414.003906 L 790.941406 400.359375 C 779.203125 395.636719 773.136719 382.417969 777.386719 370.394531 C 781.753906 358.039062 795.371094 351.542969 807.742188 355.917969 L 826.097656 362.402344 L 830.914062 348.765625 Z M 787.367188 416.65625 L 786.394531 416.3125 C 765.421875 408.902344 754.378906 385.824219 761.78125 364.878906 C 769.1875 343.925781 792.273438 332.921875 813.25 340.332031 L 833.554688 347.507812 L 827.359375 365.042969 L 807.050781 357.863281 C 795.757812 353.875 783.324219 359.804688 779.339844 371.082031 C 775.351562 382.363281 781.300781 394.785156 792.59375 398.773438 L 793.566406 399.117188 L 787.367188 416.65625 "/></g></g></g></g></g></svg>